<?xml version="1.0" encoding="utf-8"?>
<!-- Generator: Adobe Illustrator 19.0.0, SVG Export Plug-In . SVG Version: 6.00 Build 0)  -->
<svg version="1.1" id="Layer_1" xmlns="http://www.w3.org/2000/svg" xmlns:xlink="http://www.w3.org/1999/xlink" x="0px" y="0px"
	 viewBox="0 0 131.9 131.9" style="enable-background:new 0 0 131.9 131.9;" xml:space="preserve">
<style type="text/css">
	.st0{fill:#49CDFF;}
</style>
<path id="XMLID_5_" class="st0" d="M65.9,0C29.5,0,0,29.5,0,65.9c0,36.5,29.5,65.9,65.9,65.9s65.9-29.5,65.9-65.9
	C131.9,29.5,102.4,0,65.9,0z M48.7,14.5c5-1.8,11.3-2.8,17.3-2.8c7,0,13.5,1.3,19.7,3.7l-37,37V14.5z M48.7,68.8L96.5,21
	c1.5,1,3,2.2,4.5,3.3L48.7,76.6V68.8z M36.7,88.4v16.5v7c-15-9.7-25.3-26.6-25.3-46c0-19.3,10.3-36.3,25.3-45.8V88.4z M66,120.2
	c-6,0-12.3-1-17.3-2.8V93.1L75,119.4C72,119.9,69,120.2,66,120.2z M87.6,115.7L56.8,84.9l52.1-52.1c7.2,9.2,11.3,20.6,11.3,33.1
	C120.2,88.3,106.9,107.2,87.6,115.7z"/>
<g id="XMLID_86_">
</g>
<g id="XMLID_87_">
</g>
<g id="XMLID_88_">
</g>
<g id="XMLID_89_">
</g>
<g id="XMLID_90_">
</g>
<g id="XMLID_91_">
</g>
<g id="XMLID_92_">
</g>
<g id="XMLID_93_">
</g>
<g id="XMLID_94_">
</g>
<g id="XMLID_95_">
</g>
<g id="XMLID_96_">
</g>
<g id="XMLID_97_">
</g>
<g id="XMLID_98_">
</g>
<g id="XMLID_99_">
</g>
<g id="XMLID_100_">
</g>
</svg>
